<svg xmlns="http://www.w3.org/2000/svg" version="1.1" xmlns:xlink="http://www.w3.org/1999/xlink" xmlns:svgjs="http://svgjs.dev/svgjs" width="1000" height="419" viewBox="0 0 1000 419"><g transform="matrix(1,0,0,1,-0.606041256165895,-0.5413595826699407)"><svg viewBox="0 0 396 166" data-background-color="#ed1703" preserveAspectRatio="xMidYMid meet" height="419" width="1000" xmlns="http://www.w3.org/2000/svg" xmlns:xlink="http://www.w3.org/1999/xlink"><g id="tight-bounds" transform="matrix(1,0,0,1,0.23999233744169146,0.21447658883820964)"><svg viewBox="0 0 395.5199999999999 165.57104682232358" height="165.57104682232358" width="395.5199999999999"><g><svg viewBox="0 0 659.0730919468358 275.8986189473684" height="165.57104682232358" width="395.5199999999999"><g transform="matrix(1,0,0,1,263.5530919468358,85.25667789473684)"><svg viewBox="0 0 395.52 105.38526315789473" height="105.38526315789473" width="395.52"><g><svg viewBox="0 0 395.52 105.38526315789473" height="105.38526315789473" width="395.52"><g><svg viewBox="0 0 395.52 105.38526315789473" height="105.38526315789473" width="395.52"><g transform="matrix(1,0,0,1,0,0)"><svg width="395.52" viewBox="1.7999999523162842 -40.5 151.989990234375 40.5" height="105.38526315789473" data-palette-color="#ffffff"><path d="M12.7 0L8.4 0 1.8-40.5 6.5-40.5 10.85-11.4 16.3-40.35 20.3-40.35 25.8-11.25 30.05-40.5 34.65-40.5 28.15 0 24.05 0 18.4-30 12.7 0ZM55.4 0L39.6 0 39.6-40.5 55.3-40.5 55.3-36.3 45.25-36.3 45.25-22.9 53.4-22.9 53.4-18.9 45.25-18.9 45.25-4.05 55.4-4.05 55.4 0ZM70.75 0L59.95 0 59.95-40.5 69.25-40.5Q72-40.5 74.02-39.9 76.05-39.3 77.4-38.05 78.75-36.8 79.4-34.88 80.05-32.95 80.05-30.35L80.05-30.35Q80.05-27.85 79.42-26.03 78.8-24.2 77.52-23.15 76.25-22.1 74.25-21.8L74.25-21.8Q76.7-21.25 78.2-19.93 79.7-18.6 80.42-16.53 81.15-14.45 81.15-11.55L81.15-11.55Q81.15-8.95 80.55-6.8 79.95-4.65 78.67-3.15 77.4-1.65 75.42-0.83 73.45 0 70.75 0L70.75 0ZM65.6-19.3L65.6-4.05 69.4-4.05Q73.2-4.05 74.47-5.83 75.75-7.6 75.75-11.55L75.75-11.55Q75.75-14.1 75.07-15.83 74.4-17.55 72.92-18.43 71.45-19.3 68.95-19.3L68.95-19.3 65.6-19.3ZM65.6-36.3L65.6-23.6 68.95-23.6Q71.35-23.6 72.7-24.28 74.05-24.95 74.6-26.45 75.15-27.95 75.15-30.35L75.15-30.35Q75.15-33.15 74.3-34.4 73.45-35.65 71.65-35.98 69.85-36.3 66.95-36.3L66.95-36.3 65.6-36.3ZM95.39 0L86.14 0 86.14-40.5 94.94-40.5Q99.44-40.5 102.07-39.13 104.69-37.75 105.82-35 106.94-32.25 106.94-28.15L106.94-28.15 106.94-13.25Q106.94-8.95 105.82-6 104.69-3.05 102.17-1.53 99.64 0 95.39 0L95.39 0ZM91.79-36.3L91.79-4.05 94.99-4.05Q98.09-4.05 99.39-5.25 100.69-6.45 100.97-8.75 101.24-11.05 101.24-14.3L101.24-14.3 101.24-27.45Q101.24-30.6 100.84-32.55 100.44-34.5 99.09-35.4 97.74-36.3 94.84-36.3L94.84-36.3 91.79-36.3ZM128.29 0L112.49 0 112.49-40.5 128.19-40.5 128.19-36.3 118.14-36.3 118.14-22.9 126.29-22.9 126.29-18.9 118.14-18.9 118.14-4.05 128.29-4.05 128.29 0ZM144.84 0L139.89 0 130.84-40.5 136.14-40.5 142.54-10.65 148.64-40.5 153.79-40.5 144.84 0Z" opacity="1" transform="matrix(1,0,0,1,0,0)" fill="#ffffff" class="undefined-text-0" data-fill-palette-color="primary" id="text-0"></path></svg></g></svg></g></svg></g></svg></g><g><svg viewBox="0 0 238.67416056157268 275.8986189473684" height="275.8986189473684" width="238.67416056157268"><g><svg xmlns="http://www.w3.org/2000/svg" xmlns:xlink="http://www.w3.org/1999/xlink" version="1.1" x="0" y="0" viewBox="17.299999237060547 12.199999809265137 65.39999389648438 75.60000610351562" style="enable-background:new 0 0 100 100;" xml:space="preserve" height="275.8986189473684" width="238.67416056157268" class="icon-icon-0" data-fill-palette-color="accent" id="icon-0"><path d="M50 12.2L17.3 31.1v37.8L50 87.8l32.7-18.9V31.1L50 12.2zM32.1 37.4L50 16l17 21.4H32.1zM67.3 39.4L50 70.4l-18.2-31H67.3zM48.1 71l-27.7-4.5 9.8-25.9L48.1 71zM68.9 40.7l10.7 25.9-27.7 4.5L68.9 40.7zM69.2 37.1L52.6 16l27 15.6L69.2 37.1zM29.8 37.1l-9.4-5.5 26.8-15.5L29.8 37.1zM28.8 38.8l-9.5 25V33.3L28.8 38.8zM49 73.2v11.7L20.9 68.7 49 73.2zM51 73.2l28.1-4.5L51 84.9V73.2zM70.3 38.8l10.5-5.6v30.9L70.3 38.8z" fill="#ffffff" data-fill-palette-color="accent"></path></svg></g></svg></g></svg></g><defs></defs></svg><rect width="395.5199999999999" height="165.57104682232358" fill="none" stroke="none" visibility="hidden"></rect></g></svg></g></svg>