<svg data-v-423bf9ae="" xmlns="http://www.w3.org/2000/svg" viewBox="0 0 334.42695548151295 60" class="font"><!----><!----><defs data-v-423bf9ae=""><linearGradient data-v-423bf9ae="" gradientTransform="rotate(25)" id="747d890a-e25d-41d3-91d9-ef44b221efb2" x1="0%" y1="0%" x2="100%" y2="0%"><stop data-v-423bf9ae="" offset="0%" style="stop-color: rgb(184, 41, 73); stop-opacity: 1;"></stop><stop data-v-423bf9ae="" offset="100%" style="stop-color: rgb(233, 184, 76); stop-opacity: 1;"></stop></linearGradient></defs><g data-v-423bf9ae="" id="cb5e85f0-3306-4d19-b597-b14cd337376e" fill="url(#747d890a-e25d-41d3-91d9-ef44b221efb2)" transform="matrix(4.297994136810303,0,0,4.297994136810303,-3.481383800506592,-15.644697189331055)"><path d="M0.81 14L4.72 14L4.72 13.37L3.64 13.19L3.64 10.12L4.45 10.12C6.86 10.12 8.11 8.92 8.11 7.10C8.11 5.18 6.80 4.20 4.31 4.20L0.81 4.20L0.81 4.83L1.71 5.01L1.71 13.19L0.81 13.37ZM3.64 9.23L3.64 5.10L4.12 5.10C5.50 5.10 6.15 5.78 6.15 7.06C6.15 8.33 5.59 9.23 4.16 9.23ZM9.11 14L12.77 14L12.77 13.37L11.87 13.20L11.87 7.18L11.54 6.93L9.10 7.13L9.10 7.76L10.01 7.87L10.01 13.20L9.11 13.37ZM10.89 5.71C11.56 5.71 12.00 5.32 12.00 4.63C12.00 4.02 11.62 3.64 10.99 3.64C10.36 3.64 9.87 4.02 9.87 4.68C9.87 5.31 10.30 5.71 10.89 5.71ZM17.40 14.14C19.04 14.14 19.71 13.57 19.71 13.57L19.71 12.80C19.71 12.80 18.98 12.96 18.14 12.96C16.34 12.96 15.68 11.98 15.61 10.51L20.08 10.51C20.12 8.19 19.01 6.86 16.95 6.86C15.19 6.86 13.72 8.30 13.72 10.63C13.72 12.67 15.02 14.14 17.40 14.14ZM15.64 9.56C15.75 8.39 16.25 7.77 16.98 7.77C17.61 7.77 18.10 8.47 18.10 9.45ZM21.15 14L24.98 14L24.98 13.37L23.91 13.26L23.91 9.94C23.91 9.18 23.86 8.54 23.86 8.54C23.86 8.54 24.25 8.30 24.81 8.30C25.45 8.30 25.82 8.61 26.36 8.82L27.01 7.46C26.25 7.20 26.01 6.86 25.37 6.86C24.86 6.86 24.39 7.13 23.86 7.87L23.91 7.18L23.55 6.93L21.14 7.13L21.14 7.76L22.02 7.87L22.05 13.24L21.15 13.37ZM27.61 14L31.43 14L31.43 13.37L30.37 13.26L30.37 9.94C30.37 9.18 30.31 8.54 30.31 8.54C30.31 8.54 30.70 8.30 31.26 8.30C31.91 8.30 32.27 8.61 32.82 8.82L33.46 7.46C32.70 7.20 32.47 6.86 31.82 6.86C31.32 6.86 30.84 7.13 30.31 7.87L30.37 7.18L30.00 6.93L27.59 7.13L27.59 7.76L28.48 7.87L28.50 13.24L27.61 13.37ZM37.66 14.14C39.30 14.14 39.97 13.57 39.97 13.57L39.97 12.80C39.97 12.80 39.24 12.96 38.40 12.96C36.60 12.96 35.94 11.98 35.87 10.51L40.33 10.51C40.38 8.19 39.27 6.86 37.21 6.86C35.45 6.86 33.98 8.30 33.98 10.63C33.98 12.67 35.28 14.14 37.66 14.14ZM35.90 9.56C36.01 8.39 36.51 7.77 37.24 7.77C37.87 7.77 38.36 8.47 38.36 9.45ZM52.61 14.13C53.12 14.13 53.52 14 53.52 14L53.52 13.40C53.16 13.40 52.92 13.26 52.74 12.98L50.54 9.70C51.62 9.35 52.36 8.40 52.36 7.13C52.36 5.28 51.06 4.20 48.57 4.20L44.95 4.20L44.95 4.83L45.85 5.01L45.85 13.19L44.95 13.37L44.95 14L48.86 14L48.86 13.37L47.78 13.19L47.78 10.18L48.87 10.18L50.69 13.09C51.18 13.86 51.59 14.13 52.61 14.13ZM47.78 9.28L47.78 5.10L48.20 5.10C49.62 5.10 50.40 5.88 50.40 7.22C50.40 8.54 49.59 9.28 48.41 9.28ZM57.39 13.20C56.38 13.20 55.90 12.10 55.90 10.49C55.90 8.96 56.18 7.80 57.41 7.80C58.42 7.80 58.90 8.90 58.90 10.51C58.90 12.04 58.62 13.20 57.39 13.20ZM57.22 14.14C59.54 14.14 60.79 12.50 60.79 10.35C60.79 8.27 59.54 6.86 57.58 6.86C55.26 6.86 54.01 8.50 54.01 10.65C54.01 12.73 55.26 14.14 57.22 14.14ZM61.78 17.60C64.37 15.90 64.53 15.19 64.53 13.57L64.53 7.18L64.19 6.93L61.75 7.13L61.75 7.76L62.66 7.87L62.66 13.93C62.66 15.43 62.57 15.69 61.28 17.07ZM63.41 5.71C64.08 5.71 64.51 5.32 64.51 4.63C64.51 4.02 64.13 3.64 63.50 3.64C62.87 3.64 62.38 4.02 62.38 4.68C62.38 5.31 62.82 5.71 63.41 5.71ZM71.62 14.14C72.10 14.14 72.53 13.90 72.53 13.90L72.53 13.26L72.51 13.26C72.04 13.26 71.81 13.13 71.81 12.66L71.81 9.27C71.81 7.94 71.16 6.86 69.13 6.86C67.82 6.86 66.72 7.31 66.72 7.31L66.72 8.13C66.72 8.13 67.65 7.91 68.29 7.91C69.55 7.91 69.97 8.40 69.97 9.37L69.97 10.12C69.57 10.12 69.06 10.14 68.53 10.21C66.88 10.40 66.08 11.20 66.08 12.42C66.08 13.37 66.72 14.17 68.12 14.17C68.94 14.17 69.59 13.80 70.18 13.31C70.35 13.76 70.71 14.14 71.62 14.14ZM68.91 12.92C68.26 12.92 67.91 12.59 67.91 12.08C67.91 11.47 68.31 11.10 68.87 10.99C69.54 10.86 69.94 10.96 69.94 10.96L69.94 11.41C69.94 12.22 69.99 12.61 69.99 12.61C69.99 12.61 69.66 12.92 68.91 12.92ZM76.19 14.14C77.64 14.14 78.62 13.51 78.62 11.98C78.62 9.95 75.36 9.72 75.36 8.53C75.36 8.16 75.56 7.94 76.06 7.94C76.82 7.94 77.31 8.29 78.23 8.57L78.51 7.07C77.70 6.97 77.04 6.86 76.20 6.86C74.51 6.86 73.71 7.64 73.71 8.89C73.71 11.00 76.99 11.21 76.99 12.50C76.99 12.80 76.79 13.05 76.26 13.05C75.43 13.05 74.51 12.68 73.75 12.43L73.47 13.93C74.20 14.01 75.07 14.14 76.19 14.14Z"></path></g><!----><!----></svg>
